<?xml version="1.0" encoding="UTF-8" standalone="no"?>

<svg
   width="120mm"
   height="25.542076mm"
   viewBox="0 0 119.99998 25.542076"
   version="1.1"
   id="svg5"
   xml:space="preserve"
   xmlns:xlink="http://www.w3.org/1999/xlink"
   xmlns="http://www.w3.org/2000/svg"
   xmlns:svg="http://www.w3.org/2000/svg"><defs
     id="defs2"><linearGradient
       id="linearGradient2795"><stop
         style="stop-color:#b8b8b8;stop-opacity:0.49803922;"
         offset="0"
         id="stop2797" /><stop
         style="stop-color:#7f7f7f;stop-opacity:0;"
         offset="1"
         id="stop2799" /></linearGradient><linearGradient
       id="linearGradient2787"><stop
         style="stop-color:#7f7f7f;stop-opacity:0.5;"
         offset="0"
         id="stop2789" /><stop
         style="stop-color:#7f7f7f;stop-opacity:0;"
         offset="1"
         id="stop2791" /></linearGradient><linearGradient
       id="linearGradient3676"><stop
         style="stop-color:#b2b2b2;stop-opacity:0.5;"
         offset="0"
         id="stop3678" /><stop
         style="stop-color:#b3b3b3;stop-opacity:0;"
         offset="1"
         id="stop3680" /></linearGradient><linearGradient
       id="linearGradient3236"><stop
         style="stop-color:#f4f4f4;stop-opacity:1"
         offset="0"
         id="stop3244" /><stop
         style="stop-color:white;stop-opacity:1"
         offset="1"
         id="stop3240" /></linearGradient><linearGradient
       id="linearGradient4671"><stop
         style="stop-color:#ffd43b;stop-opacity:1;"
         offset="0"
         id="stop4673" /><stop
         style="stop-color:#ffe873;stop-opacity:1"
         offset="1"
         id="stop4675" /></linearGradient><linearGradient
       id="linearGradient4689"><stop
         style="stop-color:#5a9fd4;stop-opacity:1;"
         offset="0"
         id="stop4691" /><stop
         style="stop-color:#306998;stop-opacity:1;"
         offset="1"
         id="stop4693" /></linearGradient><linearGradient
       x1="224.23996"
       y1="144.75717"
       x2="-65.308502"
       y2="144.75717"
       id="linearGradient2987"
       xlink:href="#linearGradient4671"
       gradientUnits="userSpaceOnUse"
       gradientTransform="translate(100.2702,99.61116)" /><linearGradient
       x1="172.94208"
       y1="77.475983"
       x2="26.670298"
       y2="76.313133"
       id="linearGradient2990"
       xlink:href="#linearGradient4689"
       gradientUnits="userSpaceOnUse"
       gradientTransform="translate(100.2702,99.61116)" /><linearGradient
       xlink:href="#linearGradient4671"
       id="linearGradient2255"
       gradientUnits="userSpaceOnUse"
       gradientTransform="matrix(0.562541,0,0,0.567972,-11.5974,-7.60954)"
       x1="224.23996"
       y1="144.75717"
       x2="-65.308502"
       y2="144.75717" /><linearGradient
       xlink:href="#linearGradient4689"
       id="linearGradient2258"
       gradientUnits="userSpaceOnUse"
       gradientTransform="matrix(0.562541,0,0,0.567972,-11.5974,-7.60954)"
       x1="172.94208"
       y1="76.176224"
       x2="26.670298"
       y2="76.313133" /><radialGradient
       xlink:href="#linearGradient2795"
       id="radialGradient2801"
       cx="61.518883"
       cy="132.28575"
       fx="61.518883"
       fy="132.28575"
       r="29.036913"
       gradientTransform="matrix(1,0,0,0.177966,0,108.7434)"
       gradientUnits="userSpaceOnUse" /><linearGradient
       xlink:href="#linearGradient4671"
       id="linearGradient1475"
       gradientUnits="userSpaceOnUse"
       gradientTransform="matrix(0.562541,0,0,0.567972,4.5792503,35.633427)"
       x1="150.96111"
       y1="192.35176"
       x2="112.03144"
       y2="137.27299" /><linearGradient
       xlink:href="#linearGradient4689"
       id="linearGradient1478"
       gradientUnits="userSpaceOnUse"
       gradientTransform="matrix(0.562541,0,0,0.567972,4.5792503,35.633427)"
       x1="26.648937"
       y1="20.603781"
       x2="135.66525"
       y2="114.39767" /></defs><g
     id="layer5"
     style="display:inline"
     transform="translate(-63.957355,-63.693254)"><g
       aria-label="PyPermission"
       id="text4164"
       style="font-size:14.1111px;line-height:1.25;font-family:Overpass;-inkscape-font-specification:Overpass;letter-spacing:0px;word-spacing:0px;fill:#646464;stroke-width:0.265"><path
         d="m 95.250037,81.72097 h 1.227666 v -3.965219 h 2.554109 c 2.314218,0 3.189108,-1.594554 3.189108,-2.94922 0,-1.467554 -0.79022,-2.963331 -3.189108,-2.963331 h -3.781775 z m 3.866442,-5.108218 h -2.638776 v -3.626553 h 2.638776 c 1.481661,0 1.876771,1.044222 1.876771,1.820332 0,0.846666 -0.47977,1.806221 -1.876771,1.806221 z"
         id="path29389" /><path
         d="m 104.93024,84.458524 h 1.24178 l 3.73944,-9.948326 h -1.25589 l -1.82033,4.910663 c -0.0988,0.254 -0.15522,0.451555 -0.22578,0.691444 -0.0705,-0.239889 -0.127,-0.437444 -0.22577,-0.691444 l -1.79211,-4.910663 h -1.22767 l 2.667,7.027328 z"
         id="path29391" /><path
         d="m 111.76003,81.72097 h 1.22766 v -3.965219 h 2.55411 c 2.31422,0 3.18911,-1.594554 3.18911,-2.94922 0,-1.467554 -0.79022,-2.963331 -3.18911,-2.963331 h -3.78177 z m 3.86644,-5.108218 h -2.63878 v -3.626553 h 2.63878 c 1.48166,0 1.87677,1.044222 1.87677,1.820332 0,0.846666 -0.47977,1.806221 -1.87677,1.806221 z"
         id="path29393" /><path
         d="m 122.79488,81.890303 c 0.97367,0 1.79211,-0.39511 2.32834,-0.931332 l -0.74789,-0.832555 c -0.45156,0.451555 -1.00189,0.64911 -1.55222,0.64911 -1.08656,0 -1.87678,-0.860777 -1.97556,-2.18722 h 4.88244 c 0.0282,-0.282222 0.0423,-0.592666 0.0423,-0.818444 0,-2.370665 -1.35467,-3.428997 -2.97745,-3.428997 -1.9191,0 -3.20321,1.382888 -3.20321,3.767664 0,2.201331 1.22766,3.781774 3.20321,3.781774 z m -1.96144,-4.346219 c 0.0706,-1.481665 0.91722,-2.116665 1.96144,-2.116665 0.762,0 1.72156,0.479778 1.73567,2.116665 z"
         id="path29395" /><path
         d="m 127.60677,81.72097 h 1.22767 v -4.063997 c 0,-1.636887 0.91722,-2.102554 1.60866,-2.102554 0.49389,0 0.80434,0.155222 1.03011,0.310445 l 0.18345,-1.157111 c -0.254,-0.211666 -0.64911,-0.366888 -1.11478,-0.366888 -0.80433,0 -1.38289,0.395111 -1.70744,1.114777 v -0.945444 h -1.22767 z"
         id="path29397" /><path
         d="m 141.54854,81.72097 h 1.22766 v -4.727218 c 0,-1.749777 -1.10066,-2.652887 -2.54,-2.652887 -0.93133,0 -1.66511,0.409222 -2.08844,1.058332 -0.40922,-0.705555 -1.15711,-1.058332 -1.93322,-1.058332 -0.762,0 -1.45344,0.268111 -1.89089,0.846666 v -0.677333 h -1.22766 v 7.210772 h 1.22766 v -4.388552 c 0,-1.142999 0.59267,-1.862665 1.55222,-1.862665 1.11478,0 1.43934,0.888999 1.43934,1.876776 v 4.374441 h 1.22766 v -4.332108 c 0,-1.142999 0.62089,-1.919109 1.55222,-1.919109 1.11478,0 1.45345,0.888999 1.45345,1.876776 z"
         id="path29399" /><path
         d="m 145.65488,73.197866 c 0.43744,0 0.77611,-0.338667 0.77611,-0.762 0,-0.437444 -0.33867,-0.790221 -0.77611,-0.790221 -0.42334,0 -0.762,0.352777 -0.762,0.790221 0,0.423333 0.33866,0.762 0.762,0.762 z m -0.60678,8.523104 h 1.22766 v -7.210772 h -1.22766 z"
         id="path29401" /><path
         d="m 150.74898,81.890303 c 1.56633,0 2.56822,-0.747888 2.56822,-2.046109 0,-1.368777 -1.03011,-1.933221 -2.34244,-2.398887 -0.80433,-0.324556 -1.524,-0.592666 -1.524,-1.199444 0,-0.507999 0.46567,-0.804332 1.19944,-0.804332 0.77611,0 1.28411,0.366888 1.59456,0.691443 l 0.84666,-0.705555 c -0.52211,-0.620888 -1.32644,-1.086554 -2.42711,-1.086554 -1.38288,0 -2.42711,0.719666 -2.42711,1.904998 0,1.185333 0.90312,1.763888 2.22956,2.257776 0.84666,0.324556 1.651,0.649111 1.651,1.368777 0,0.635 -0.57856,0.917222 -1.34056,0.917222 -0.77611,0 -1.397,-0.465667 -1.76388,-0.860778 l -0.87489,0.747889 c 0.56444,0.719666 1.55222,1.213554 2.61055,1.213554 z"
         id="path29403" /><path
         d="m 157.36708,81.890303 c 1.56634,0 2.56822,-0.747888 2.56822,-2.046109 0,-1.368777 -1.03011,-1.933221 -2.34244,-2.398887 -0.80433,-0.324556 -1.524,-0.592666 -1.524,-1.199444 0,-0.507999 0.46567,-0.804332 1.19945,-0.804332 0.77611,0 1.28411,0.366888 1.59455,0.691443 l 0.84667,-0.705555 c -0.52211,-0.620888 -1.32645,-1.086554 -2.42711,-1.086554 -1.38289,0 -2.42711,0.719666 -2.42711,1.904998 0,1.185333 0.90311,1.763888 2.22955,2.257776 0.84667,0.324556 1.651,0.649111 1.651,1.368777 0,0.635 -0.57855,0.917222 -1.34055,0.917222 -0.77611,0 -1.397,-0.465667 -1.76389,-0.860778 l -0.87489,0.747889 c 0.56444,0.719666 1.55222,1.213554 2.61055,1.213554 z"
         id="path29405" /><path
         d="m 162.4753,73.197866 c 0.43744,0 0.77611,-0.338667 0.77611,-0.762 0,-0.437444 -0.33867,-0.790221 -0.77611,-0.790221 -0.42333,0 -0.762,0.352777 -0.762,0.790221 0,0.423333 0.33867,0.762 0.762,0.762 z m -0.60678,8.523104 h 1.22767 v -7.210772 h -1.22767 z"
         id="path29407" /><path
         d="m 168.2044,81.890303 c 1.93322,0 3.18911,-1.41111 3.18911,-3.781774 0,-2.384776 -1.25589,-3.767664 -3.18911,-3.767664 -1.93322,0 -3.18911,1.41111 -3.18911,3.781775 0,2.384776 1.25589,3.767663 3.18911,3.767663 z m 0,-1.142999 c -1.22767,0 -1.94733,-0.987777 -1.94733,-2.624664 0,-1.679221 0.71966,-2.652887 1.94733,-2.652887 1.22767,0 1.94733,1.001888 1.94733,2.638776 0,1.650998 -0.73378,2.638775 -1.94733,2.638775 z"
         id="path29409" /><path
         d="m 177.75763,81.72097 h 1.22766 v -4.148663 c 0,-2.328332 -0.94544,-3.231442 -2.58233,-3.231442 -0.77611,0 -1.41111,0.282222 -1.86266,0.90311 v -0.733777 h -1.22767 v 7.210772 h 1.22767 v -4.388552 c 0,-1.396999 0.71966,-1.862665 1.66511,-1.862665 0.889,0 1.55222,0.52211 1.55222,1.890887 z"
         id="path29411" /></g><g
       id="layer3"
       transform="matrix(0.18702654,0,0,0.18702654,65.581811,63.976874)"><path
         id="path1948"
         style="fill:url(#linearGradient1478);fill-opacity:1"
         d="M 75.087966,2.9029896 A 38.675713,38.85498 0 0 0 36.412185,41.758458 h 0.01758 v 34.328125 c -7.034181,0.663358 -13.002784,5.276171 -14.972656,13.5 -2.461818,10.212961 -2.571017,16.586037 0,27.250007 1.905918,7.93784 6.457547,13.59375 14.25,13.59375 h 9.21875 v -12.25 c 0,-8.84989 7.657149,-16.65625 16.75,-16.65625 h 26.78125 c 7.454942,0 13.406531,-6.138179 13.406251,-13.625007 v -11.90625 h -26.781251 -26.8125 -3.34375 V 41.758458 h 0.01758 a 30.14595,30.006409 0 0 1 30.144531,-30.00586 30.14595,30.006409 0 0 1 30.14648,30.00586 v 30.859375 h 8.5293 V 41.758458 A 38.675713,38.85498 0 0 0 75.087966,2.9029896 Z" /><path
         style="fill:url(#linearGradient1475);fill-opacity:1"
         d="m 48.27037,130.43047 h 26.81254 26.78125 13.40625 c 7.79246,0 10.69625,-5.43541 13.40624,-13.59375 2.79933,-8.39888 2.68022,-16.47577 0,-27.250003 -1.92578,-7.757441 -5.60387,-13.59375 -13.40624,-13.59375 h -10.0625 v 11.90625 c 0,9.230757 -7.8259,17.000003 -16.75,17.000003 H 61.67666 c -7.33584,0 -13.40625,6.27848 -13.40625,13.625"
         id="path1950" /></g></g></svg>
