<?xml version="1.0" encoding="UTF-8" standalone="no"?>
<svg
   width="76.568001mm"
   height="25.542076mm"
   viewBox="0 0 76.567988 25.542076"
   version="1.1"
   id="svg5"
   xml:space="preserve"
   sodipodi:docname="logo_path.svg"
   inkscape:version="1.4.2 (ebf0e940d0, 2025-05-08)"
   xmlns:inkscape="http://www.inkscape.org/namespaces/inkscape"
   xmlns:sodipodi="http://sodipodi.sourceforge.net/DTD/sodipodi-0.dtd"
   xmlns:xlink="http://www.w3.org/1999/xlink"
   xmlns="http://www.w3.org/2000/svg"
   xmlns:svg="http://www.w3.org/2000/svg"><sodipodi:namedview
     id="namedview1"
     pagecolor="#505050"
     bordercolor="#eeeeee"
     borderopacity="1"
     inkscape:showpageshadow="0"
     inkscape:pageopacity="0"
     inkscape:pagecheckerboard="0"
     inkscape:deskcolor="#d1d1d1"
     inkscape:document-units="mm"
     inkscape:zoom="5.6568543"
     inkscape:cx="93.161318"
     inkscape:cy="110.22027"
     inkscape:window-width="3840"
     inkscape:window-height="2100"
     inkscape:window-x="0"
     inkscape:window-y="0"
     inkscape:window-maximized="1"
     inkscape:current-layer="svg5" /><defs
     id="defs2"><linearGradient
       id="linearGradient2795"><stop
         style="stop-color:#b8b8b8;stop-opacity:0.49803922;"
         offset="0"
         id="stop2797" /><stop
         style="stop-color:#7f7f7f;stop-opacity:0;"
         offset="1"
         id="stop2799" /></linearGradient><linearGradient
       id="linearGradient2787"><stop
         style="stop-color:#7f7f7f;stop-opacity:0.5;"
         offset="0"
         id="stop2789" /><stop
         style="stop-color:#7f7f7f;stop-opacity:0;"
         offset="1"
         id="stop2791" /></linearGradient><linearGradient
       id="linearGradient3676"><stop
         style="stop-color:#b2b2b2;stop-opacity:0.5;"
         offset="0"
         id="stop3678" /><stop
         style="stop-color:#b3b3b3;stop-opacity:0;"
         offset="1"
         id="stop3680" /></linearGradient><linearGradient
       id="linearGradient3236"><stop
         style="stop-color:#f4f4f4;stop-opacity:1"
         offset="0"
         id="stop3244" /><stop
         style="stop-color:white;stop-opacity:1"
         offset="1"
         id="stop3240" /></linearGradient><linearGradient
       id="linearGradient4671"><stop
         style="stop-color:#ffd43b;stop-opacity:1;"
         offset="0"
         id="stop4673" /><stop
         style="stop-color:#ffe873;stop-opacity:1"
         offset="1"
         id="stop4675" /></linearGradient><linearGradient
       id="linearGradient4689"><stop
         style="stop-color:#5a9fd4;stop-opacity:1;"
         offset="0"
         id="stop4691" /><stop
         style="stop-color:#306998;stop-opacity:1;"
         offset="1"
         id="stop4693" /></linearGradient><linearGradient
       x1="224.23996"
       y1="144.75717"
       x2="-65.308502"
       y2="144.75717"
       id="linearGradient2987"
       xlink:href="#linearGradient4671"
       gradientUnits="userSpaceOnUse"
       gradientTransform="translate(100.2702,99.61116)" /><linearGradient
       x1="172.94208"
       y1="77.475983"
       x2="26.670298"
       y2="76.313133"
       id="linearGradient2990"
       xlink:href="#linearGradient4689"
       gradientUnits="userSpaceOnUse"
       gradientTransform="translate(100.2702,99.61116)" /><linearGradient
       xlink:href="#linearGradient4671"
       id="linearGradient2255"
       gradientUnits="userSpaceOnUse"
       gradientTransform="matrix(0.562541,0,0,0.567972,-11.5974,-7.60954)"
       x1="224.23996"
       y1="144.75717"
       x2="-65.308502"
       y2="144.75717" /><linearGradient
       xlink:href="#linearGradient4689"
       id="linearGradient2258"
       gradientUnits="userSpaceOnUse"
       gradientTransform="matrix(0.562541,0,0,0.567972,-11.5974,-7.60954)"
       x1="172.94208"
       y1="76.176224"
       x2="26.670298"
       y2="76.313133" /><radialGradient
       xlink:href="#linearGradient2795"
       id="radialGradient2801"
       cx="61.518883"
       cy="132.28575"
       fx="61.518883"
       fy="132.28575"
       r="29.036913"
       gradientTransform="matrix(1,0,0,0.177966,0,108.7434)"
       gradientUnits="userSpaceOnUse" /><linearGradient
       xlink:href="#linearGradient4671"
       id="linearGradient1475"
       gradientUnits="userSpaceOnUse"
       gradientTransform="matrix(0.562541,0,0,0.567972,4.5792503,35.633427)"
       x1="150.96111"
       y1="192.35176"
       x2="112.03144"
       y2="137.27299" /><linearGradient
       xlink:href="#linearGradient4689"
       id="linearGradient1478"
       gradientUnits="userSpaceOnUse"
       gradientTransform="matrix(0.562541,0,0,0.567972,4.5792503,35.633427)"
       x1="26.648937"
       y1="20.603781"
       x2="135.66525"
       y2="114.39767" /></defs><g
     id="layer5"
     style="display:inline"
     transform="translate(-63.957355,-63.693254)"><g
       id="layer3"
       transform="matrix(0.18702654,0,0,0.18702654,65.581811,63.976874)"><path
         id="path1948"
         style="fill:url(#linearGradient1478);fill-opacity:1"
         d="M 75.087966,2.9029896 A 38.675713,38.85498 0 0 0 36.412185,41.758458 h 0.01758 v 34.328125 c -7.034181,0.663358 -13.002784,5.276171 -14.972656,13.5 -2.461818,10.212961 -2.571017,16.586037 0,27.250007 1.905918,7.93784 6.457547,13.59375 14.25,13.59375 h 9.21875 v -12.25 c 0,-8.84989 7.657149,-16.65625 16.75,-16.65625 h 26.78125 c 7.454942,0 13.406531,-6.138179 13.406251,-13.625007 v -11.90625 h -26.781251 -26.8125 -3.34375 V 41.758458 h 0.01758 a 30.14595,30.006409 0 0 1 30.144531,-30.00586 30.14595,30.006409 0 0 1 30.14648,30.00586 v 30.859375 h 8.5293 V 41.758458 A 38.675713,38.85498 0 0 0 75.087966,2.9029896 Z" /><path
         style="fill:url(#linearGradient1475);fill-opacity:1"
         d="m 48.27037,130.43047 h 26.81254 26.78125 13.40625 c 7.79246,0 10.69625,-5.43541 13.40624,-13.59375 2.79933,-8.39888 2.68022,-16.47577 0,-27.250003 -1.92578,-7.757441 -5.60387,-13.59375 -13.40624,-13.59375 h -10.0625 v 11.90625 c 0,9.230757 -7.8259,17.000003 -16.75,17.000003 H 61.67666 c -7.33584,0 -13.40625,6.27848 -13.40625,13.625"
         id="path1950" /></g></g><path
     d="M 31.292681,17.966526 V 8.3145481 h 4.970834 q 1.382616,0 2.113428,0.23702 0.730811,0.2370199 1.178516,0.8822408 0.447704,0.6386371 0.447704,1.5603811 0,0.803234 -0.342362,1.3892 -0.342362,0.579382 -0.941496,0.941496 -0.381865,0.230436 -1.046838,0.381865 0.533295,0.177765 0.776899,0.35553 0.164597,0.11851 0.474039,0.50696 0.316027,0.388449 0.421369,0.599133 l 1.441871,2.798152 h -3.37095 l -1.5933,-2.949581 q -0.302859,-0.572798 -0.539879,-0.743979 -0.32261,-0.223853 -0.730811,-0.223853 h -0.263356 v 3.917413 z m 2.995668,-5.741149 h 1.257523 q 0.2041,0 0.790066,-0.131678 0.296275,-0.05926 0.480624,-0.302859 0.190932,-0.243603 0.190932,-0.55963 0,-0.467456 -0.296274,-0.717644 -0.296275,-0.250187 -1.112677,-0.250187 h -1.310194 z m 7.459544,-3.9108289 h 5.583136 q 1.395784,0 2.139763,0.6913082 0.750563,0.6913081 0.750563,1.7118107 0,0.855905 -0.533295,1.468207 -0.35553,0.4082 -1.040254,0.64522 1.040254,0.250188 1.527462,0.86249 0.493791,0.605717 0.493791,1.527461 0,0.750563 -0.348946,1.349697 -0.348946,0.599134 -0.954663,0.94808 -0.375282,0.217268 -1.132429,0.316026 -1.007334,0.131678 -1.336529,0.131678 h -5.148599 z m 3.008836,3.7857349 h 1.297026 q 0.697892,0 0.967831,-0.23702 0.276523,-0.243604 0.276523,-0.697892 0,-0.421369 -0.276523,-0.658389 -0.269939,-0.23702 -0.94808,-0.23702 h -1.316777 z m 0,3.792319 h 1.520878 q 0.770315,0 1.086341,-0.26994 0.316027,-0.276523 0.316027,-0.737395 0,-0.427953 -0.316027,-0.684724 -0.309442,-0.263356 -1.092925,-0.263356 h -1.514294 z m 13.180943,0.480623 h -3.397286 l -0.467456,1.593301 h -3.048339 l 3.627721,-9.6519779 h 3.25244 l 3.627722,9.6519779 h -3.120762 z m -0.625469,-2.087092 -1.06659,-3.469708 -1.060006,3.469708 z m 11.357202,-0.263355 2.613803,0.790066 q -0.263355,1.099509 -0.829569,1.836905 -0.566215,0.737395 -1.408952,1.112677 -0.836154,0.375281 -2.133179,0.375281 -1.573549,0 -2.5743,-0.454288 -0.994167,-0.460872 -1.718394,-1.613052 -0.724228,-1.152181 -0.724228,-2.949582 0,-2.396534 1.27069,-3.6803922 1.277274,-1.2904418 3.60797,-1.2904418 1.823737,0 2.863991,0.7373953 1.046838,0.7373953 1.553797,2.2648567 l -2.633555,0.585966 q -0.138261,-0.44112 -0.289691,-0.645221 -0.250187,-0.342362 -0.612301,-0.526711 -0.362114,-0.184348 -0.809818,-0.184348 -1.013919,0 -1.553797,0.816402 -0.408201,0.605717 -0.408201,1.902743 0,1.606468 0.487207,2.205602 0.487208,0.59255 1.369449,0.59255 0.855905,0 1.290441,-0.480624 0.441121,-0.480624 0.638637,-1.395784 z"
     id="text1"
     style="font-size:13.4838px;line-height:1.25;font-family:'Arial Black';-inkscape-font-specification:'Arial Black, ';letter-spacing:0px;word-spacing:0px;fill:#646464;stroke-width:0.337096"
     aria-label="RBAC" /></svg>
