<?xml version="1.0" encoding="UTF-8" standalone="no"?>
<svg
   width="134.504mm"
   height="25.542076mm"
   viewBox="0 0 134.50398 25.542076"
   version="1.1"
   id="svg5"
   xml:space="preserve"
   sodipodi:docname="logo_font_path.svg"
   inkscape:version="1.4.2 (ebf0e940d0, 2025-05-08)"
   xmlns:inkscape="http://www.inkscape.org/namespaces/inkscape"
   xmlns:sodipodi="http://sodipodi.sourceforge.net/DTD/sodipodi-0.dtd"
   xmlns:xlink="http://www.w3.org/1999/xlink"
   xmlns="http://www.w3.org/2000/svg"
   xmlns:svg="http://www.w3.org/2000/svg"><sodipodi:namedview
     id="namedview1"
     pagecolor="#505050"
     bordercolor="#eeeeee"
     borderopacity="1"
     inkscape:showpageshadow="0"
     inkscape:pageopacity="0"
     inkscape:pagecheckerboard="0"
     inkscape:deskcolor="#d1d1d1"
     inkscape:document-units="mm"
     inkscape:zoom="1.4142136"
     inkscape:cx="65.760929"
     inkscape:cy="426.03182"
     inkscape:window-width="3840"
     inkscape:window-height="2100"
     inkscape:window-x="0"
     inkscape:window-y="0"
     inkscape:window-maximized="1"
     inkscape:current-layer="svg5" /><defs
     id="defs2"><linearGradient
       id="linearGradient2795"><stop
         style="stop-color:#b8b8b8;stop-opacity:0.49803922;"
         offset="0"
         id="stop2797" /><stop
         style="stop-color:#7f7f7f;stop-opacity:0;"
         offset="1"
         id="stop2799" /></linearGradient><linearGradient
       id="linearGradient2787"><stop
         style="stop-color:#7f7f7f;stop-opacity:0.5;"
         offset="0"
         id="stop2789" /><stop
         style="stop-color:#7f7f7f;stop-opacity:0;"
         offset="1"
         id="stop2791" /></linearGradient><linearGradient
       id="linearGradient3676"><stop
         style="stop-color:#b2b2b2;stop-opacity:0.5;"
         offset="0"
         id="stop3678" /><stop
         style="stop-color:#b3b3b3;stop-opacity:0;"
         offset="1"
         id="stop3680" /></linearGradient><linearGradient
       id="linearGradient3236"><stop
         style="stop-color:#f4f4f4;stop-opacity:1"
         offset="0"
         id="stop3244" /><stop
         style="stop-color:white;stop-opacity:1"
         offset="1"
         id="stop3240" /></linearGradient><linearGradient
       id="linearGradient4671"><stop
         style="stop-color:#ffd43b;stop-opacity:1;"
         offset="0"
         id="stop4673" /><stop
         style="stop-color:#ffe873;stop-opacity:1"
         offset="1"
         id="stop4675" /></linearGradient><linearGradient
       id="linearGradient4689"><stop
         style="stop-color:#5a9fd4;stop-opacity:1;"
         offset="0"
         id="stop4691" /><stop
         style="stop-color:#306998;stop-opacity:1;"
         offset="1"
         id="stop4693" /></linearGradient><linearGradient
       x1="224.23996"
       y1="144.75717"
       x2="-65.308502"
       y2="144.75717"
       id="linearGradient2987"
       xlink:href="#linearGradient4671"
       gradientUnits="userSpaceOnUse"
       gradientTransform="translate(100.2702,99.61116)" /><linearGradient
       x1="172.94208"
       y1="77.475983"
       x2="26.670298"
       y2="76.313133"
       id="linearGradient2990"
       xlink:href="#linearGradient4689"
       gradientUnits="userSpaceOnUse"
       gradientTransform="translate(100.2702,99.61116)" /><linearGradient
       xlink:href="#linearGradient4671"
       id="linearGradient2255"
       gradientUnits="userSpaceOnUse"
       gradientTransform="matrix(0.562541,0,0,0.567972,-11.5974,-7.60954)"
       x1="224.23996"
       y1="144.75717"
       x2="-65.308502"
       y2="144.75717" /><linearGradient
       xlink:href="#linearGradient4689"
       id="linearGradient2258"
       gradientUnits="userSpaceOnUse"
       gradientTransform="matrix(0.562541,0,0,0.567972,-11.5974,-7.60954)"
       x1="172.94208"
       y1="76.176224"
       x2="26.670298"
       y2="76.313133" /><radialGradient
       xlink:href="#linearGradient2795"
       id="radialGradient2801"
       cx="61.518883"
       cy="132.28575"
       fx="61.518883"
       fy="132.28575"
       r="29.036913"
       gradientTransform="matrix(1,0,0,0.177966,0,108.7434)"
       gradientUnits="userSpaceOnUse" /><linearGradient
       xlink:href="#linearGradient4671"
       id="linearGradient1475"
       gradientUnits="userSpaceOnUse"
       gradientTransform="matrix(0.562541,0,0,0.567972,4.5792503,35.633427)"
       x1="150.96111"
       y1="192.35176"
       x2="112.03144"
       y2="137.27299" /><linearGradient
       xlink:href="#linearGradient4689"
       id="linearGradient1478"
       gradientUnits="userSpaceOnUse"
       gradientTransform="matrix(0.562541,0,0,0.567972,4.5792503,35.633427)"
       x1="26.648937"
       y1="20.603781"
       x2="135.66525"
       y2="114.39767" /></defs><g
     id="layer5"
     style="display:inline"
     transform="translate(-63.957355,-63.693254)"><g
       id="layer3"
       transform="matrix(0.18702654,0,0,0.18702654,65.581811,63.976874)"><path
         id="path1948"
         style="fill:url(#linearGradient1478);fill-opacity:1"
         d="M 75.087966,2.9029896 C 53.727743,2.9029519 36.411917,20.299228 36.412185,41.758458 h 0.01758 v 34.328125 c -7.034181,0.663358 -13.000137,5.276171 -14.970009,13.5 -2.461818,10.212961 -2.573664,16.586037 -0.0026,27.250007 1.905918,7.93784 6.457547,13.59375 14.25,13.59375 h 9.21875 v -12.25 c 0,-8.84989 7.657149,-16.65625 16.75,-16.65625 h 26.78125 c 7.454942,0 13.406534,-6.138179 13.406254,-13.625007 v -11.90625 h -26.781254 -26.8125 -3.34375 V 41.758458 h 0.01758 c 3.05e-4,-16.571316 13.496152,-30.00508 30.144531,-30.00586 16.64914,-2.91e-4 30.146183,13.433786 30.146483,30.00586 v 30.859375 h 8.5293 V 41.758458 C 113.76402,20.299227 96.44819,2.9029502 75.087966,2.9029896 Z"
         sodipodi:nodetypes="ccccccscsssccccccccccccc" /><path
         style="fill:url(#linearGradient1475);fill-opacity:1"
         d="m 48.27037,130.43047 h 26.81254 26.78125 13.40625 c 7.79246,0 10.69625,-5.43541 13.40624,-13.59375 2.79933,-8.39888 2.68022,-16.47577 0,-27.250003 -1.92578,-7.757441 -5.60387,-13.59375 -13.40624,-13.59375 h -10.0625 v 11.90625 c 0,9.230757 -7.8259,17.000003 -16.75,17.000003 H 61.67666 c -7.33584,0 -13.40625,6.27848 -13.40625,13.625"
         id="path1950" /></g></g><path
     d="m 31.811204,8.0307916 h 5.027783 q 1.642542,0 2.457136,0.7812093 0.821272,0.7812092 0.821272,2.2234421 0,1.482294 -0.894719,2.316919 -0.888041,0.834626 -2.71754,0.834626 H 34.84924 v 3.632289 h -3.038036 z m 3.038036,4.1731264 h 0.741147 q 0.874687,0 1.228569,-0.300465 0.353881,-0.307142 0.353881,-0.781209 0,-0.460714 -0.307142,-0.78121 -0.307143,-0.320496 -1.155122,-0.320496 H 34.84924 Z M 40.731679,10.7283 h 2.871111 l 1.462263,4.720641 1.355432,-4.720641 h 2.677477 l -2.811017,7.578398 q -0.480745,1.295338 -0.98152,1.749375 -0.707762,0.640992 -2.156672,0.640992 -0.587576,0 -1.816144,-0.160248 l -0.213664,-1.896269 q 0.587576,0.186956 1.308692,0.186956 0.480744,0 0.774533,-0.220341 0.300465,-0.220341 0.507452,-0.787886 z M 50.03942,8.0307916 h 5.027783 q 1.642542,0 2.457137,0.7812093 0.821271,0.7812092 0.821271,2.2234421 0,1.482294 -0.894719,2.316919 -0.888041,0.834626 -2.717539,0.834626 h -1.655897 v 3.632289 H 50.03942 Z m 3.038036,4.1731264 h 0.741147 q 0.874688,0 1.228569,-0.300465 0.353881,-0.307142 0.353881,-0.781209 0,-0.460714 -0.307142,-0.78121 -0.307142,-0.320496 -1.155122,-0.320496 h -0.861333 z m 14.188631,2.744248 h -5.448434 q 0.07345,0.654346 0.353881,0.974842 0.393943,0.460713 1.028258,0.460713 0.400621,0 0.761179,-0.20031 0.220341,-0.126863 0.474067,-0.447359 l 2.677478,0.247049 q -0.614284,1.068321 -1.482295,1.535711 -0.86801,0.460713 -2.490522,0.460713 -1.408847,0 -2.216764,-0.393943 -0.807918,-0.40062 -1.342078,-1.261954 -0.527483,-0.86801 -0.527483,-2.036485 0,-1.662574 1.061643,-2.690832 1.068321,-1.028259 2.944558,-1.028259 1.522357,0 2.403721,0.460714 0.881364,0.460713 1.342078,1.3354 0.460713,0.874687 0.460713,2.276858 z M 64.501808,13.64615 q -0.08012,-0.787886 -0.427328,-1.128413 -0.340527,-0.340527 -0.901396,-0.340527 -0.647669,0 -1.034935,0.514129 -0.247049,0.320496 -0.313819,0.954811 z m 4.039586,-2.91785 h 2.543938 v 1.161799 q 0.367235,-0.754501 0.754501,-1.034935 0.393943,-0.287112 0.968165,-0.287112 0.600931,0 1.31537,0.373913 l -0.841302,1.93633 q -0.480745,-0.20031 -0.761179,-0.20031 -0.53416,0 -0.827948,0.440682 -0.420651,0.620961 -0.420651,2.323597 v 2.377013 h -2.730894 z m 6.743773,0 h 2.537261 v 1.034936 q 0.547514,-0.647669 1.101705,-0.921426 0.560868,-0.273758 1.348755,-0.273758 0.847979,0 1.342077,0.300466 0.494098,0.300465 0.807917,0.894718 0.640993,-0.694408 1.168476,-0.941457 0.527483,-0.253727 1.302015,-0.253727 1.141768,0 1.78276,0.681055 0.640992,0.674377 0.640992,2.116609 v 4.453561 H 84.592908 V 13.77969 q 0,-0.480744 -0.186956,-0.714439 -0.273757,-0.367235 -0.681054,-0.367235 -0.480744,0 -0.774532,0.347204 -0.293788,0.347204 -0.293788,1.11506 v 3.658997 h -2.724217 v -3.906046 q 0,-0.467391 -0.05342,-0.634316 -0.0868,-0.26708 -0.300466,-0.427328 -0.213664,-0.166925 -0.500775,-0.166925 -0.46739,0 -0.767855,0.353881 -0.300465,0.353881 -0.300465,1.161799 v 3.618935 H 75.285167 Z M 89.039791,8.0307916 h 2.71754 v 1.8495296 h -2.71754 z m 0,2.6975084 h 2.71754 v 7.090977 h -2.71754 z m 3.972815,5.127938 2.697509,-0.253726 q 0.166925,0.480744 0.46739,0.687731 0.300465,0.206987 0.80124,0.206987 0.547515,0 0.84798,-0.233695 0.233695,-0.173602 0.233695,-0.434005 0,-0.293788 -0.307142,-0.454036 -0.220341,-0.113509 -1.168476,-0.280434 -1.415524,-0.247049 -1.969715,-0.454036 -0.547514,-0.213664 -0.928104,-0.714439 -0.373912,-0.500776 -0.373912,-1.141768 0,-0.701085 0.407297,-1.208537 0.407298,-0.507452 1.121737,-0.754501 0.714439,-0.253727 1.916299,-0.253727 1.268631,0 1.869561,0.193634 0.607607,0.193633 1.008227,0.60093 0.407298,0.407297 0.674378,1.101705 l -2.577323,0.253726 q -0.100155,-0.340527 -0.33385,-0.500775 -0.320496,-0.213664 -0.774533,-0.213664 -0.460713,0 -0.674377,0.166925 -0.206987,0.160248 -0.206987,0.393943 0,0.260403 0.26708,0.393943 0.26708,0.13354 1.161799,0.240372 1.355431,0.153571 2.016454,0.427328 0.661023,0.273758 1.008227,0.78121 0.35388,0.507452 0.35388,1.115059 0,0.614284 -0.37391,1.195183 -0.367236,0.5809 -1.168476,0.928104 -0.794563,0.340527 -2.170026,0.340527 -1.943007,0 -2.770955,-0.554191 -0.821272,-0.554191 -1.054967,-1.575773 z m 8.352934,0 2.69751,-0.253726 q 0.16692,0.480744 0.46739,0.687731 0.30046,0.206987 0.80124,0.206987 0.54751,0 0.84798,-0.233695 0.23369,-0.173602 0.23369,-0.434005 0,-0.293788 -0.30714,-0.454036 -0.22034,-0.113509 -1.16848,-0.280434 -1.41552,-0.247049 -1.96971,-0.454036 -0.54752,-0.213664 -0.9281,-0.714439 -0.37392,-0.500776 -0.37392,-1.141768 0,-0.701085 0.4073,-1.208537 0.4073,-0.507452 1.12174,-0.754501 0.71444,-0.253727 1.9163,-0.253727 1.26863,0 1.86956,0.193634 0.6076,0.193633 1.00822,0.60093 0.4073,0.407297 0.67438,1.101705 l -2.57732,0.253726 q -0.10016,-0.340527 -0.33385,-0.500775 -0.3205,-0.213664 -0.77453,-0.213664 -0.46072,0 -0.67438,0.166925 -0.20699,0.160248 -0.20699,0.393943 0,0.260403 0.26708,0.393943 0.26708,0.13354 1.1618,0.240372 1.35543,0.153571 2.01646,0.427328 0.66102,0.273758 1.00822,0.78121 0.35388,0.507452 0.35388,1.115059 0,0.614284 -0.37391,1.195183 -0.36723,0.5809 -1.16847,0.928104 -0.79457,0.340527 -2.17003,0.340527 -1.94301,0 -2.77096,-0.554191 -0.82127,-0.554191 -1.05496,-1.575773 z m 8.93383,-7.8254464 h 2.71754 v 1.8495296 h -2.71754 z m 0,2.6975084 h 2.71754 v 7.090977 h -2.71754 z m 4.11971,3.56552 q 0,-1.622512 1.09503,-2.670801 1.09503,-1.054967 2.95791,-1.054967 2.12996,0 3.21831,1.235246 0.87469,0.994873 0.87469,2.45046 0,1.635865 -1.08835,2.684155 -1.08167,1.041612 -2.99797,1.041612 -1.70932,0 -2.76428,-0.86801 -1.29534,-1.074998 -1.29534,-2.817695 z m 2.72422,-0.0067 q 0,0.948134 0.38058,1.40217 0.38727,0.454036 0.96817,0.454036 0.58758,0 0.96149,-0.447359 0.38059,-0.447359 0.38059,-1.435555 0,-0.921427 -0.38059,-1.368786 -0.38059,-0.454036 -0.94146,-0.454036 -0.59425,0 -0.98152,0.460713 -0.38726,0.454036 -0.38726,1.388817 z m 6.73041,-3.558843 h 2.53058 v 1.155122 q 0.56755,-0.707762 1.14845,-1.008227 0.5809,-0.307143 1.41552,-0.307143 1.12842,0 1.76273,0.674378 0.64099,0.6677 0.64099,2.06987 v 4.506977 h -2.73089 v -3.899369 q 0,-0.667701 -0.24705,-0.941458 -0.24705,-0.280434 -0.69441,-0.280434 -0.4941,0 -0.80124,0.373912 -0.30714,0.373912 -0.30714,1.342078 v 3.405271 h -2.71754 z"
     id="text2"
     style="font-size:13.6745px;line-height:1.5;font-family:'Arial Black';-inkscape-font-specification:'Arial Black, ';fill:#646464;stroke-width:0"
     transform="scale(0.98360789,1.0166653)"
     aria-label="PyPermission" /></svg>
